<?xml version="1.0" standalone="yes"?>
<svg xmlns="http://www.w3.org/2000/svg" width="420" height="424">
<path style="fill:#47714d; stroke:none;" d="M0 0L0 218L0 327L1 327C19.8143 277.863 50.8675 231.725 76.9992 186C102.073 142.126 126.676 97.9748 151.576 54C163.12 33.6111 172.879 9.12115 198 2.89893C238.173 -7.05133 256.517 34.1033 272.231 63C305.317 123.844 340.963 183.295 374.306 244C388.704 270.214 411.487 298.348 417.55 328C425.956 369.11 396.363 419.377 352 423L352 424L420 424L420 0L0 0z"/>
<path style="fill:#048dff; stroke:none;" d="M199 0L199 1L204 1L199 0M215 0L215 1L219 1L215 0M188 4L188 5L198 2L188 4M205 1L205 2L214 2L205 1M220 1L220 2L223 2L220 1M199 2L200 3L199 2z"/>
<path style="fill:#01e6ff; stroke:none;" d="M123 107L121 107L122 109L118 116L116 116L117 118L115 121L113 121L114 123L112 123L113 125L110 130L108 130L107 132L107 133L110 128L112 128L111 126L120.093 117.785L147 104C159.59 103.68 175.698 92.7254 187 87.2585C212.011 75.1597 240.485 66.8384 264 52L266 56L267 56L267 53L265 53L266 51L264 51C263.874 44.9653 259.076 39.2296 256.231 34C242.771 9.26346 218.12 -6.00436 190 5.4537C163.603 16.2097 150.877 54.8036 137.579 78C133.001 85.984 123.193 97.7609 123 107z"/>
<path style="fill:#048dff; stroke:none;" d="M219 2L220 3L219 2M224.667 2.33334L225.333 2.66666L224.667 2.33334M195 3L196 4L195 3M223 3L224 4L223 3M227 3L227 4L234 7L234 6L227 3M192 4L193 5L192 4M226 4L227 5L226 4M186 5L183 7L183 8L187 6L186 5M235 7L235 8L241 12L235 7M181 8L170 19L181 8M234 8L235 9L234 8M237 10L238 11L237 10M178 12L179 13L178 12M242 12L253 27L254 27L242 12M177 13L178 14L177 13M172 18L173 19L172 18M169 20L163 30L164 30L169 20M248 21L249 22L248 21M250 24L251 25L250 24M167 25L168 26L167 25M254 28L255 29L254 28M253 29L254 30L253 29M164 30L165 31L164 30M255 30L258 36L259 36L255 30M162 31L159 37L160 37L162 31M163 32L164 33L163 32M257 36L258 37L257 36M160 37L161 38L160 37M259 37L262 43L263 43L259 37M158 38L154 46L155 46L158 38M258 38L259 39L258 38M159 39L160 40L159 39M263 44L267 52L268 52L263 44M262 45L263 46L262 45M155 46L156 47L155 46M153 47L150 53L151 53L153 47z"/>
<path style="fill:#03b9ff; stroke:none;" d="M264 50L265 51L264 50M262 51L263 52L262 51M147 104L118.329 118.274L111 126L110 128L105 140C98.8551 143.485 95.697 152.991 92.2809 159C83.0065 175.314 67.744 194.878 63 213L64 213L69 203L116 184C122.521 178.113 133.085 175.652 141 171.894C161.13 162.337 181.522 152.958 202 144.17C210.868 140.364 229.399 135.906 235 128L252.999 121.425L293 103L297 111L298 111L293 102L277 71L270 59L268 60L268 59L267 54L266 54L267 56L266 56L264 52C238.358 63.5985 212.447 74.769 187 86.7809C175.08 92.4073 160.147 102.57 147 104M265 52L266 53L265 52z"/>
<path style="fill:#048dff; stroke:none;" d="M266 52L267 53L266 52M268 53L271 59L272 59L268 53M149 54L146 60L147 60L149 54z"/>
<path style="fill:#075fff; stroke:none;" d="M267 54L268 55L267 54z"/>
<path style="fill:#048dff; stroke:none;" d="M150 55L151 56L150 55z"/>
<path style="fill:#01e6ff; stroke:none;" d="M268 56L269 57L268 56M267 57L268 58L267 57M268 58L268 60L270 58L268 58z"/>
<path style="fill:#048dff; stroke:none;" d="M270 59L271 60L270 59z"/>
<path style="fill:#01e6ff; stroke:none;" d="M269.667 60.3333L270.333 60.6667L269.667 60.3333z"/>
<path style="fill:#048dff; stroke:none;" d="M272 60L275 66L276 66L272 60M145 61L141 69L142 69L145 61M271 61L272 62L271 61M146 62L147 63L146 62z"/>
<path style="fill:#01e6ff; stroke:none;" d="M270 62L271 63L270 62M272 63L273 64L272 63M271 64L272 65L271 64M273 65L274 66L273 65M274 67L275 68L274 67z"/>
<path style="fill:#048dff; stroke:none;" d="M276 67L280 75L281 75L276 67M275 68L276 69L275 68M142 69L143 70L142 69M140 70L137 76L138 76L140 70z"/>
<path style="fill:#01e6ff; stroke:none;" d="M276 70L277 71L276 70z"/>
<path style="fill:#048dff; stroke:none;" d="M141 71L142 72L141 71M277 72L278 73L277 72M278 74L279 75L278 74M279 75L280 76L279 75M281 76L284 82L285 82L281 76M136 77L132 85L133 85L136 77M280 77L281 78L280 77M137 78L138 79L137 78M281 79L282 80L281 79z"/>
<path style="fill:#01e6ff; stroke:none;" d="M282 81L283 82L282 81z"/>
<path style="fill:#048dff; stroke:none;" d="M283 83L284 84L283 83M285 83L288 89L289 89L285 83M284 84L285 85L284 84M133 85L134 86L133 85M131 86L128 92L129 92L131 86M285 86L286 87L285 86M286 88L287 89L286 88M287 90L287 92L289 92L287 90M289 90L290 91L289 90M129 92L130 93L129 92M290 92L293 98L294 98L290 92M127 93L124 99L125 99L127 93M289 93L290 94L289 93M128 94L129 95L128 94M290.333 95.6667L290.667 96.3333L290.333 95.6667M291 97L293 100L291 97M125 99L126 100L125 99M294 99L297 105L298 105L294 99M123 100L119 108L120 108L123 100M293 100L294 101L293 100M124 101L125 102L124 101M291 101L292 102L291 101M293 102L295 104L293 102z"/>
<path style="fill:#075fff; stroke:none;" d="M294 102L295 103L294 102z"/>
<path style="fill:#048dff; stroke:none;" d="M235 128C227.085 135.397 212.039 139.709 202 143.756C183.697 151.135 166.17 160.48 148 168.193C139.428 171.832 121.479 176.528 116 184C99.9708 183.88 84.99 200.943 69 203L64 213C58.8679 214.031 55.3942 222.115 55 227L48 237L31 266L24 278L22 286L19 287L16 297L14 300L12 300L13 302L10 304L11 305L14 298L19 292C32.9394 292.106 51.2564 278.346 64 272.873C69.4989 270.511 76.872 269.497 80 264L81 264L83 269L82 264L83 264L84 270L85 270L83 261L85 265L86 265L84 257L86 260L87 260L85 253L89 250L90 250L91 243L90 247L91 247L91 240L92 240L93 242L98 231L96 232L96 231L99 230C109.014 215.158 121.861 201.798 136 191L135 193L136 193L139 189L138 191L146 184L149 185L151 182L150 184L155 182L153 180L164 178L162 176L167 175L167 176L165 176L165 177L174 172L176 173L177 173L177 172L175 172L175 171L184 171L184 170L181 170L181 169L185 168L191 169L191 168L188 168L188 167L196 168L196 167L192 167L192 166L197 165L201 167L201 166L199 165L205 164L205 165L202 165L202 166L206 164L215 165L215 164L212 164L212 163L218 162C221.613 166.135 232.751 164 238 164L238 163L236 163L236 162L253 164L253 165L249 165L249 166L257 165L257 166L254 166L254 167L261 166L261 167L258 167L258 168L264 167L264 168L262 168L262 169L267 168L267 169L265 169L265 170L270 168L268 171L275 171L275 172L273 173L282 177L282 176L279 175L279 174L286 176L286 175L283 174L283 173L324 157L320 150L317 145L316 143C315.458 131.73 303.669 119.272 299 109L297 111L293 103C274.051 109.463 254.954 125.451 235 128M295.333 104.667L295.667 105.333L295.333 104.667z"/>
<path style="fill:#03b9ff; stroke:none;" d="M122 106L123 107L122 106z"/>
<path style="fill:#048dff; stroke:none;" d="M296 106L296 108L298 108L296 106M298 106L302 114L303 114L298 106M120 108L121 109L120 108z"/>
<path style="fill:#03b9ff; stroke:none;" d="M121 108L122 109L121 108z"/>
<path style="fill:#048dff; stroke:none;" d="M118 109L115 115L116 115L118 109z"/>
<path style="fill:#075fff; stroke:none;" d="M119 110L120 111L119 110z"/>
<path style="fill:#03b9ff; stroke:none;" d="M119 111L120 112L119 111M117 115L118 116L117 115M119 115L118 117L119 115z"/>
<path style="fill:#048dff; stroke:none;" d="M303 115L306 121L307 121L303 115M114 116L111 122L112 122L114 116z"/>
<path style="fill:#075fff; stroke:none;" d="M302 116L303 117L302 116z"/>
<path style="fill:#048dff; stroke:none;" d="M115 117L116 118L115 117z"/>
<path style="fill:#03b9ff; stroke:none;" d="M116 117L117 118L116 117M115 119L116 120L115 119M114 120L115 121L114 120M113 122L114 123L113 122z"/>
<path style="fill:#048dff; stroke:none;" d="M307 122L310 128L311 128L307 122M110 123L106 131L107 131L110 123M111 124L112 125L111 124z"/>
<path style="fill:#03b9ff; stroke:none;" d="M112 124L113 125L112 124z"/>
<path style="fill:#075fff; stroke:none;" d="M307 125L308 126L307 125z"/>
<path style="fill:#03b9ff; stroke:none;" d="M109 129L110 130L109 129z"/>
<path style="fill:#048dff; stroke:none;" d="M311 129L315 137L316 137L311 129M107 131L108 132L107 131z"/>
<path style="fill:#03b9ff; stroke:none;" d="M108 131L109 132L108 131z"/>
<path style="fill:#048dff; stroke:none;" d="M105 132L102 138L103 138L105 132M106 133L107 134L106 133z"/>
<path style="fill:#01e6ff; stroke:none;" d="M107 134L108 135L107 134z"/>
<path style="fill:#075fff; stroke:none;" d="M312 134L313 135L312 134z"/>
<path style="fill:#01e6ff; stroke:none;" d="M105 135L106 136L105 135M106 136L107 137L106 136M104 137L105 138L104 137z"/>
<path style="fill:#048dff; stroke:none;" d="M316 138L319 144L320 144L316 138M101 139L97 147L98 147L101 139z"/>
<path style="fill:#01e6ff; stroke:none;" d="M103.667 139.333L104.333 139.667L103.667 139.333z"/>
<path style="fill:#075fff; stroke:none;" d="M315 139L316 140L315 139z"/>
<path style="fill:#048dff; stroke:none;" d="M102 140L103 141L102 140z"/>
<path style="fill:#01e6ff; stroke:none;" d="M103 141L104 142L103 141M101 142L102 143L101 142z"/>
<path style="fill:#075fff; stroke:none;" d="M316 142L317 143L316 142z"/>
<path style="fill:#048dff; stroke:none;" d="M100 144L101 145L100 144z"/>
<path style="fill:#075fff; stroke:none;" d="M317 144L318 145L317 144z"/>
<path style="fill:#048dff; stroke:none;" d="M320 145L323 151L324 151L320 145z"/>
<path style="fill:#01e6ff; stroke:none;" d="M99 146L100 147L99 146z"/>
<path style="fill:#048dff; stroke:none;" d="M98 147L99 148L98 147M96 148L93 154L94 154L96 148z"/>
<path style="fill:#075fff; stroke:none;" d="M97 149L98 150L97 149M320 149L321 150L320 149z"/>
<path style="fill:#01e6ff; stroke:none;" d="M96 151L97 152L96 151z"/>
<path style="fill:#048dff; stroke:none;" d="M324 152L325 153L324 152z"/>
<path style="fill:#01e6ff; stroke:none;" d="M95 153L96 154L95 153z"/>
<path style="fill:#075fff; stroke:none;" d="M322 153L321 155L322 153z"/>
<path style="fill:#048dff; stroke:none;" d="M94.3333 154.667L94.6667 155.333L94.3333 154.667z"/>
<path style="fill:#075fff; stroke:none;" d="M323 154L324 157L283 173L283 174L286 175L286 176L281 174L281 175C320.817 194.764 339.056 241.312 341.91 283C342.851 296.74 338.524 310.345 340 324L339 324L338 322L337 323L339 327C359.547 319.534 383.51 309.669 402 298L404 302L406 301L408 303L404 301L403 297L405 298C403.738 295.637 403.418 294.732 401 296C400.63 292.365 400.866 289.135 397 288L395 283C394.693 273.767 385.005 261.995 380.421 254C368.427 233.078 356.806 211.944 344.85 191C340.812 183.927 334.858 166.805 327 164L327 159L325 161L324 158L326 158L323 154z"/>
<path style="fill:#048dff; stroke:none;" d="M325 154L328 160L329 160L325 154M92 155L89 161L90 161L92 155M93 156L94 157L93 156z"/>
<path style="fill:#01e6ff; stroke:none;" d="M92 158L93 159L92 158z"/>
<path style="fill:#03b9ff; stroke:none;" d="M172 158L173 159L172 158z"/>
<path style="fill:#048dff; stroke:none;" d="M324 158L325 161L326 161L326 158L324 158z"/>
<path style="fill:#01e6ff; stroke:none;" d="M91 160L92 161L91 160z"/>
<path style="fill:#048dff; stroke:none;" d="M327 160L328 161L327 160M90 161L91 162L90 161M326 161L327 162L326 161M329 161L332 167L333 167L329 161M88 162L84 170L85 170L88 162z"/>
<path style="fill:#01e6ff; stroke:none;" d="M90 162L91 163L90 162z"/>
<path style="fill:#47714d; stroke:none;" d="M212 163L212 164L215 164L215 165L206 164L202 166L202 165L205 165L205 164L199 165L201 166L201 167L197 165L192 166L192 167L196 167L196 168L188 167L188 168L191 168L191 169L185 168L181 169L181 170L184 170L184 171L175 171L175 172L177 172L177 173L174 172L165 177L165 176L167 176L167 175L162 176L164 178L153 180L155 182L150 184L151 182L150 182L149 185L146 184L138 191L139 189L138 189L136 193L135 193L136 191L135 191C122.972 204.217 107.01 213.067 99 230L97 229L96 232L98 231L93 242L92 240L91 240L91 247L90 247L91 243L90 243L90 250L89 250L88 248L87 260L86 260L86 257L85 257L86 265L85 265L85 261L84 261L85 270L84 270L84 266L83 266C82.1373 286.092 80.531 305.651 90.8758 324C111.711 360.956 172.817 364.096 204 338.535C225.834 320.638 237.426 287.791 238 260L237 260C221.685 283.176 201.557 295.225 180 311L181 309L180 309L160 311L160 312L163 312L163 313L158 313C157.428 308.846 146.707 306.784 143 304.574C132.233 298.156 124.691 285.803 127.472 273C130.167 260.593 138.211 250.732 147 242C162.62 226.482 185.664 214.699 208 214.019C250.239 212.731 291.427 246.999 285.741 291C284.441 301.055 282.228 311.877 277.667 321C259.075 358.183 213.958 383.22 178 400.755C165.975 406.619 153.507 411.83 141 416.588C136.333 418.363 129.431 419.4 127 424L219 424C231.642 424 248.876 427.068 261 423.487C275.371 419.242 291.766 400.937 301.282 390C336.914 349.049 349.648 296.75 336 244L335 246L334 246C335.093 238.187 330.699 230.814 327.244 224C317.649 205.078 301.601 182.808 281 175L282 177L273 173L275 172L275 171L268 171L270 170L270 169L265 170L265 169L267 169L267 168L262 169L262 168L264 168L264 167L258 168L258 167L261 167L261 166L254 167L254 166L257 166L257 165L249 166L249 165L253 165L253 164L236 162L236 163L238 163L238 164L218 162L212 163M220.667 162.333L221.333 162.667L220.667 162.333M223.667 162.333L224.333 162.667L223.667 162.333M226 162L226 163L231 163L226 162M233 162L234 163L233 162z"/>
<path style="fill:#048dff; stroke:none;" d="M328 162L327 164L329 164L328 162M89 163L90 164L89 163z"/>
<path style="fill:#47714d; stroke:none;" d="M208 163L208 164L211 164L208 163z"/>
<path style="fill:#048dff; stroke:none;" d="M241 164L241 165L247 165L241 164M88 165L89 166L88 165z"/>
<path style="fill:#03b9ff; stroke:none;" d="M193 165L194 166L193 165z"/>
<path style="fill:#075fff; stroke:none;" d="M258 165L259 166L258 165z"/>
<path style="fill:#048dff; stroke:none;" d="M330 166L331 167L330 166M87 167L88 168L87 167z"/>
<path style="fill:#03b9ff; stroke:none;" d="M178 168L179 169L178 168z"/>
<path style="fill:#075fff; stroke:none;" d="M269 168L270 169L269 168z"/>
<path style="fill:#048dff; stroke:none;" d="M333 168L337 176L338 176L333 168M86 169L87 170L86 169z"/>
<path style="fill:#03b9ff; stroke:none;" d="M175 169L176 170L175 169z"/>
<path style="fill:#075fff; stroke:none;" d="M271 169L272 170L271 169z"/>
<path style="fill:#048dff; stroke:none;" d="M332 169L333 170L332 169M85 170L86 171L85 170z"/>
<path style="fill:#47714d; stroke:none;" d="M178 170L179 171L178 170M180 170L181 171L180 170M270.667 170.333L271.333 170.667L270.667 170.333z"/>
<path style="fill:#048dff; stroke:none;" d="M83 171L80 177L81 177L83 171z"/>
<path style="fill:#03b9ff; stroke:none;" d="M170 171L171 172L170 171z"/>
<path style="fill:#075fff; stroke:none;" d="M84 172L85 173L84 172z"/>
<path style="fill:#03b9ff; stroke:none;" d="M167 172L168 173L167 172z"/>
<path style="fill:#47714d; stroke:none;" d="M172 172L169 173L169 174L173 173L172 172M275 172L275 173L279 174L279 173L275 172z"/>
<path style="fill:#075fff; stroke:none;" d="M277.667 172.333L278.333 172.667L277.667 172.333M282 172L283 173L282 172z"/>
<path style="fill:#048dff; stroke:none;" d="M83 174L84 175L83 174z"/>
<path style="fill:#03b9ff; stroke:none;" d="M162 174L163 175L162 174z"/>
<path style="fill:#47714d; stroke:none;" d="M167 174L168 175L167 174M279.667 174.333L280.333 174.667L279.667 174.333z"/>
<path style="fill:#03b9ff; stroke:none;" d="M160 175L161 176L160 175z"/>
<path style="fill:#048dff; stroke:none;" d="M335 175L336 176L335 175M82 176L83 177L82 176M287 176L289 178L287 176M336 176L337 177L336 176M81.3333 177.667L81.6667 178.333L81.3333 177.667z"/>
<path style="fill:#47714d; stroke:none;" d="M158 178L158 179L162 178L158 178z"/>
<path style="fill:#048dff; stroke:none;" d="M283 177L283 178L314 205C306.909 193.664 295.13 182.738 283 177M286 177L287 178L286 177M338 177L341 183L342 183L338 177M79 178L76 184L77 184L79 178M287 178L288 179L287 178M80 179L81 180L80 179M291 179L292 180L291 179M156 180L157 181L156 180M290 180L291 181L290 180M338 180L339 181L338 180z"/>
<path style="fill:#01e6ff; stroke:none;" d="M79 181L80 182L79 181z"/>
<path style="fill:#47714d; stroke:none;" d="M151.667 181.333L152.333 181.667L151.667 181.333z"/>
<path style="fill:#048dff; stroke:none;" d="M78.3333 183.667L78.6667 184.333L78.3333 183.667z"/>
<path style="fill:#03b9ff; stroke:none;" d="M144 183L145 184L144 183z"/>
<path style="fill:#048dff; stroke:none;" d="M294 183L295 184L294 183M342 184L345 190L346 190L342 184M75 185L71 193L72 193L75 185M77 185L76 187L78 187L77 185z"/>
<path style="fill:#47714d; stroke:none;" d="M139 188L139 189L146 186L139 188z"/>
<path style="fill:#048dff; stroke:none;" d="M341 185L342 186L341 185M75 188L76 189L75 188M300 188L301 189L300 188M74.3333 190.667L74.6667 191.333L74.3333 190.667M346 191L350 199L351 199L346 191M73 192L72 195L73 192M345 192L346 193L345 192z"/>
<path style="fill:#47714d; stroke:none;" d="M132 193C118.917 201.9 103.802 213.696 98 229L99 229C107.003 214.638 119.538 203.158 133 194L132 193z"/>
<path style="fill:#048dff; stroke:none;" d="M70 194L67 200L68 200L70 194M306 194L307 195L306 194M71 195L72 196L71 195M307 195L308 196L307 195M308 196L309 197L308 196M70.3333 197.667L70.6667 198.333L70.3333 197.667M72 198L73 199L72 198M69.3333 199.667L69.6667 200.333L69.3333 199.667M349 199L350 200L349 199M71 200L70 203L71 203L71 200M351 200L354 206L355 206L351 200M66 201L62 209L63 209L66 201M68 201L67 203L69 203L68 201M66.3333 204.667L66.6667 205.333L66.3333 204.667M65.3333 206.667L65.6667 207.333L65.3333 206.667M314 206L322 219L323 219L314 206M355 207L359 215L360 215L355 207M64 208L63 210L65 210L64 208M354 208L355 209L354 208M318 209L319 210L318 209M61 210L58 216L59 216L61 210z"/>
<path style="fill:#075fff; stroke:none;" d="M62 211L63 212L62 211z"/>
<path style="fill:#048dff; stroke:none;" d="M205 212L205 213L212 213L205 212M197 213L197 214L201 214L197 213M216 213L216 214L221 214L216 213z"/>
<path style="fill:#03b9ff; stroke:none;" d="M62 214L61 216L62 214z"/>
<path style="fill:#048dff; stroke:none;" d="M192 214L192 215L195 215L192 214M203.667 214.333L204.333 214.667L203.667 214.333z"/>
<path style="fill:#075fff; stroke:none;" d="M203 217L200 215L192 216L192 219L189 219L190 217L186 220L187 218L186 218L183 221L184 219C182.09 219.579 180.666 219.985 183 221L183 222L177 221L178 224L176 222L175 222L169 228L167 226C164.593 227.827 161.822 228.931 163 232L160 231L159 231L158 234L152 240L149 239C141.049 248.192 131.651 256.656 128.515 269C121.405 296.984 148.523 314.371 174 310.7C198.722 307.137 226.218 281.645 237 260L238 260C237.336 292.172 221.758 329.202 193 345.496C162.824 362.594 114.105 357.394 93.7739 328C82.6142 311.866 80.8389 291.972 82 273L81 273L81 275L80 275L83 270L83 269L81 264L80 264C75.6357 269.078 68.9673 270.31 63 272.873C50.0369 278.44 33.1297 291.075 19 292L14 298L12 305C10.2912 304.689 8.50098 304.913 11 306L11 307L8 311C3.07241 314.625 2.15749 323.297 1.00386 329C-2.80384 347.823 0.999249 368.512 10.615 385C33.3197 423.931 83.6656 431.264 124 421L124 422L122 422L122 423L127 422L127 421L124 421L124 420L139 418L138 415L146 413L146 412L151 411L151 410L156 411L156 410L154 409L159 410L160 409L158 408L158 407L162 408L161 406L162 406L166 407L165 404L168 406L169 405L167 404L167 403L173 403L172 401L173 401L178 401L176 399L182 397L181 399C183.685 398.074 185.87 397.71 184 395L188 394L187 396L188 396L188 393L192 394L192 393L190 392L196 390L195 392L198 391L197 389L197 388L203 388L201 386L205 386L209 384L210 384L214 381L221 375L220 377L221 377L224 373L223 375L224 375L224 372L231 370L231 367L233 369L234 365C237.208 365.085 238.126 364.088 239 361L242 362L247 358L251 351L252 350C262.348 350.232 274.637 327.373 278.532 319C294.631 284.401 285.46 242.063 250 224.333C238.945 218.806 226.802 216.47 214.704 215.231C211.235 214.876 203.754 211.949 203 217z"/>
<path style="fill:#048dff; stroke:none;" d="M212 214L213 216L214 216L215 214L212 214M222 214L222 215L226 215L222 214M180 218L180 219L191 216L180 218M196.667 215.333L197.333 215.667L196.667 215.333M199 216L199 217L203 217L199 216M215 215L216 216L215 215M218 215L219 216L218 215M221 215L222 216L221 215M227 215L227 216L230 216L227 215M358 215L359 216L358 215M191 216L192 217L191 216M193 216C194.127 218.006 194.873 218.006 196 216L193 216z"/>
<path style="fill:#075fff; stroke:none;" d="M194 216L195 217L194 216z"/>
<path style="fill:#048dff; stroke:none;" d="M224 216L225 217L224 216M226 216L227 217L226 216M231 216L231 217L234 217L231 216M360 216L363 222L364 222L360 216M57 217L54 223L55 223L57 217z"/>
<path style="fill:#03b9ff; stroke:none;" d="M60 217L61 218L60 217z"/>
<path style="fill:#048dff; stroke:none;" d="M189 219L192 219L191 217L189 219M230 217L231 218L230 217M235.667 217.333L236.333 217.667L235.667 217.333M323 217L324 218L323 217M187 218L186 220L188 220L187 218M231 218L232 219L231 218M234 218L235 219L234 218M238.667 218.333L239.333 218.667L238.667 218.333z"/>
<path style="fill:#03b9ff; stroke:none;" d="M59 219L60 220L59 219z"/>
<path style="fill:#075fff; stroke:none;" d="M103 219L104 220L103 219z"/>
<path style="fill:#048dff; stroke:none;" d="M166 225L166 226L179 220L166 225M184 219L183 221L185 221L184 219M237 219L238 220L237 219M241.667 219.333L242.333 219.667L241.667 219.333z"/>
<path style="fill:#075fff; stroke:none;" d="M57 220L58 221L57 220z"/>
<path style="fill:#048dff; stroke:none;" d="M179 220L179 221L183 222L183 221L179 220M240 220L241 221L240 220M244 220L245 221L244 220M323 220L324 221L323 220z"/>
<path style="fill:#03b9ff; stroke:none;" d="M58 221L59 222L58 221z"/>
<path style="fill:#048dff; stroke:none;" d="M246 221L246 222L255 226L255 225L246 221M176 222L176 224L178 224L176 222M178.667 222.333L179.333 222.667L178.667 222.333M245 222L246 223L245 222M324 222L328 231L329 231L324 222M362 222L363 223L362 222M364 223L367 229L368 229L364 223M53 224L49 232L50 232L53 224M174 224L175 225L174 224M363 224L364 225L363 224M169 225L170 226L169 225M172 225L173 226L172 225z"/>
<path style="fill:#03b9ff; stroke:none;" d="M54 226L55 227L54 226z"/>
<path style="fill:#048dff; stroke:none;" d="M164 226C152.797 233.559 140.899 242.065 134 254L165 227L164 226M168.333 226.667L168.667 227.333L168.333 226.667M170 226L171 227L170 226M253 226L254 227L253 226M256 226L256 227L261 230L256 226M165 227L166 228L165 227M163 230L163 231L168 229L163 230M258 229L259 230L258 229M262 230L276 244L262 230M368 230L372 238L373 238L368 230M160 233L163 232L160 233M367 231L368 232L367 231z"/>
<path style="fill:#47714d; stroke:none;" d="M95 232L92 240L93 240L95 232z"/>
<path style="fill:#048dff; stroke:none;" d="M158.333 232.667L158.667 233.333L158.333 232.667M262 232L263 233L262 232M329 232L330 233L329 232M48 233L45 239L46 239L48 233M156 233L157 234L156 233M331 233L332 234L331 233z"/>
<path style="fill:#075fff; stroke:none;" d="M49 234L50 235L49 234z"/>
<path style="fill:#048dff; stroke:none;" d="M155 234L156 235L155 234M157 234L156 236L157 234M330 234L331 238L332 238L330 234M152 236L153 237L152 236M154 236L153 238L154 236z"/>
<path style="fill:#075fff; stroke:none;" d="M92 237L93 238L92 237z"/>
<path style="fill:#048dff; stroke:none;" d="M151 237L150 238L150 239L151 240L152 240L153 239L153 238L151 237z"/>
<path style="fill:#075fff; stroke:none;" d="M91 238L92 239L91 238z"/>
<path style="fill:#048dff; stroke:none;" d="M371 238L372 239L371 238M332 239L333 243L334 243L332 239M373 239L376 245L377 245L373 239M44 240L41 246L42 246L44 240M148 240L149 241L148 240M147 242L145 245L147 242z"/>
<path style="fill:#075fff; stroke:none;" d="M89.3333 243.667L89.6667 244.333L89.3333 243.667z"/>
<path style="fill:#048dff; stroke:none;" d="M334 243L334 246L335 246L336 243L334 243M276 245L280 252L281 252L276 245M336 245L337 246L336 245M377 246L380 252L381 252L377 246M40 247L41 248L40 247M276 247L277 248L276 247M335 247L335 250L336 250L335 247M376 247L377 248L376 247M39 249L36 255L37 255L39 249z"/>
<path style="fill:#075fff; stroke:none;" d="M87 249L88 250L87 249z"/>
<path style="fill:#048dff; stroke:none;" d="M337 250L338 251L337 250z"/>
<path style="fill:#075fff; stroke:none;" d="M86 251L87 252L86 251z"/>
<path style="fill:#048dff; stroke:none;" d="M88.3333 251.667L88.6667 252.333L88.3333 251.667M138 251L139 252L138 251M336 251L336 255L337 255L336 251z"/>
<path style="fill:#075fff; stroke:none;" d="M39 252L40 253L39 252M85 253L86 254L85 253z"/>
<path style="fill:#048dff; stroke:none;" d="M281 253L283 259L284 259L281 253M381 253L385 261L386 261L381 253M87.3333 254.667L87.6667 255.333L87.3333 254.667M380 254L381 255L380 254M133 255L131 259L132 259L133 255M338 255L339 256L338 255M35 256L32 262L33 262L35 256M337 256L337 261L338 261L337 256z"/>
<path style="fill:#075fff; stroke:none;" d="M84.3333 257.667L84.6667 258.333L84.3333 257.667z"/>
<path style="fill:#048dff; stroke:none;" d="M133 258L134 259L133 258z"/>
<path style="fill:#075fff; stroke:none;" d="M35 259L36 260L35 259z"/>
<path style="fill:#048dff; stroke:none;" d="M132 259L133 260L132 259M238 259L239 260L238 259M282 259L283 260L282 259M130 260L129 263L130 263L130 260M284.333 260.667L284.667 261.333L284.333 260.667z"/>
<path style="fill:#075fff; stroke:none;" d="M83.3333 261.667L83.6667 262.333L83.3333 261.667z"/>
<path style="fill:#048dff; stroke:none;" d="M131 261L132 262L131 261M236 261L237 262L236 261M339 261L340 262L339 261M384 261L385 262L384 261z"/>
<path style="fill:#075fff; stroke:none;" d="M81 262L82 263L81 262z"/>
<path style="fill:#048dff; stroke:none;" d="M338 262L338 268L339 268L338 262M386 262L389 268L390 268L386 262M31 263L27 271L28 271L31 263M130 263L131 264L130 263M236 263L203 299C215.752 291.024 225.232 278.19 235 267L235 272L236 272L236 263M285 263L285 266L286 266L285 263z"/>
<path style="fill:#075fff; stroke:none;" d="M82 264L82 268L83 268L82 264z"/>
<path style="fill:#048dff; stroke:none;" d="M128 264L127 268L128 268L128 264M237 266L238 267L237 266M284 266L285 267L284 266M286 267L286 271L287 271L286 267M340.333 268.667L340.667 269.333L340.333 268.667M126 269L126 272L127 272L126 269M390 269L394 277L395 277L390 269M82.3333 270.667L82.6667 271.333L82.3333 270.667M229 270L230 271L229 270M339 270L339 279L340 279L339 270M389 270L390 271L389 270M26 272L23 278L24 278L26 272M80 272L80 275L81 275L82 272L80 272M127 272L127 275L128 275L127 272M236.333 272.667L236.667 273.333L236.333 272.667M285 272L286 273L285 272z"/>
<path style="fill:#075fff; stroke:none;" d="M27 273L28 274L27 273z"/>
<path style="fill:#048dff; stroke:none;" d="M83 273L83 283L84 283L83 273M234 273L234 277L235 277L234 273M287 273L287 292L288 292L287 273M125 274L125 284L126 284L125 274M81.3333 276.667L81.6667 277.333L81.3333 276.667M392 276L393 277L392 276z"/>
<path style="fill:#075fff; stroke:none;" d="M25.3333 277.667L25.6667 278.333L25.3333 277.667z"/>
<path style="fill:#048dff; stroke:none;" d="M223 277L224 278L223 277M393 277L394 278L393 277M235 278L236 279L235 278M395 278L398 284L399 284L395 278M22 279L19 285L20 285L22 279z"/>
<path style="fill:#075fff; stroke:none;" d="M24 279L25 280L24 279z"/>
<path style="fill:#048dff; stroke:none;" d="M81 279L82 280L81 279M233 279L233 282L234 282L233 279M341 279L341 286L342 286L341 279z"/>
<path style="fill:#075fff; stroke:none;" d="M22.3333 282.667L22.6667 283.333L22.3333 282.667z"/>
<path style="fill:#048dff; stroke:none;" d="M81 282L81 287L82 287L81 282M395 282L396 283L395 282M232 283L232 286L233 286L232 283M127 284L128 285L127 284M397 284L398 285L397 284z"/>
<path style="fill:#075fff; stroke:none;" d="M21 285L22 286L21 285z"/>
<path style="fill:#048dff; stroke:none;" d="M126 285L126 288L127 288L126 285M396 285L397 286L396 285M399 285L402 291L403 291L399 285M18 286L14 294L15 294L18 286M83 286L83 297L84 297L83 286M398 286L397 288L399 288L398 286M231 287L231 290L232 290L231 287M341 287L342 288L341 287z"/>
<path style="fill:#075fff; stroke:none;" d="M19 288L18 291L19 288z"/>
<path style="fill:#048dff; stroke:none;" d="M127 289L128 290L127 289M398 289L399 290L398 289z"/>
<path style="fill:#075fff; stroke:none;" d="M20 290L21 291L20 290z"/>
<path style="fill:#048dff; stroke:none;" d="M81 290L82 291L81 290M129 290L130 291L129 290M232 290L233 291L232 290M341 290L341 296L342 296L341 290M400 290L401 291L400 290z"/>
<path style="fill:#075fff; stroke:none;" d="M17 291L18 292L17 291z"/>
<path style="fill:#048dff; stroke:none;" d="M128 291L133 298L128 291M230 291L227 302L228 302L230 291M285.333 291.667L285.667 292.333L285.333 291.667M399 291L400 292L399 291M130 292L131 293L130 292M208 292L209 293L208 292M400 292L401 296L402 296L402 292L400 292M403 292L407 300L408 300L403 292z"/>
<path style="fill:#075fff; stroke:none;" d="M16 294L17 295L16 294z"/>
<path style="fill:#048dff; stroke:none;" d="M286 294L286 298L287 298L286 294M13 295L10 301L11 301L13 295z"/>
<path style="fill:#075fff; stroke:none;" d="M15 295L14 297L16 297L15 295z"/>
<path style="fill:#048dff; stroke:none;" d="M203 296L204 297L203 296M339 296L339 305L340 305L339 296M402 296L403 297L402 296M82 297L83 298L82 297M230 297L231 298L230 297M403 297L405 301L403 297M84 298L84 303L85 303L84 298M284 298L285 299L284 298M339 324L336 327L338 326L338 327L335 330L336 333L329 351L327 351L326 357L320 364C318.294 370.32 311.54 376.943 307.385 382C294.232 398.007 278.819 411.04 262 423L262 424L347 424L347 423L344 423L344 422L349 422L348 424C351.501 423.765 356.509 423.922 357 420L359 422C366.613 420.238 377.339 417.444 381 410L383 412L384 408L387 409L388 405L391 406L391 402C399.327 401.645 405.669 389.683 409.218 383C419.083 364.43 423.172 340.088 415.248 320.025C413.359 315.243 412.506 308.956 408 306L409 304L406 301L404 302L402 298C386.328 305.089 370.796 312.471 355 319.287C351.245 320.907 342.182 327.348 339 324z"/>
<path style="fill:#075fff; stroke:none;" d="M13 299L14 300L13 299z"/>
<path style="fill:#048dff; stroke:none;" d="M133 299L142 306L142 305L133 299M199 299L200 300L199 299M201 299L192 305L192 306L201 299M341.333 299.667L341.667 300.333L341.333 299.667M136 300L137 301L136 300M285 300L285 303L286 303L285 300M406 300L407 301L406 300z"/>
<path style="fill:#075fff; stroke:none;" d="M12 301L13 302L12 301z"/>
<path style="fill:#048dff; stroke:none;" d="M196 301L197 302L196 301M408 301L414 314L415 314L408 301M9 302L4 313L5 313L9 302z"/>
<path style="fill:#075fff; stroke:none;" d="M11 302L12 303L11 302z"/>
<path style="fill:#048dff; stroke:none;" d="M83 303L84 304L83 303M226 303L225 307L226 307L226 303M283 303L284 304L283 303M85 304L85 307L86 307L85 304M142 304L143 305L142 304M191 304L192 305L191 304M284 304L284 307L285 307L284 304M189 305L190 306L189 305M340.333 305.667L340.667 306.333L340.333 305.667z"/>
<path style="fill:#075fff; stroke:none;" d="M408 305L409 306L408 305z"/>
<path style="fill:#048dff; stroke:none;" d="M9.66667 306.333L10.3333 306.667L9.66667 306.333M143 306L143 307L150 310L150 309L143 306M187 306L188 307L187 306M190 306L191 307L190 306M84 307L85 308L84 307M148 307L149 308L148 307M188 307L189 308L188 307M226 307L227 308L226 307M282 307L283 308L282 307M338 307L338 312L339 312L338 307M86.3333 308.667L86.6667 309.333L86.3333 308.667M182 308L183 309L182 308M183 309L183 310L187 309L183 309M224 308L225 309L224 308M283 308L283 311L284 311L283 308M153.667 309.333L154.333 309.667L153.667 309.333M179 309L180 310L179 309M181 309L180 311L182 311L181 309M340 309L341 310L340 309M7 310L8 311L7 310M151.667 310.333L152.333 310.667L151.667 310.333M157 310L158 311L157 310M175 310L176 311L175 310M223 310L221 315L222 315L223 310M341.333 310.667L341.667 311.333L341.333 310.667M87 311L88 316L89 316L87 311M154 311L154 312L157 312L154 311M158 312L158 313L163 313L158 312M166 311L167 312L166 311M176 311L176 312L179 312L176 311z"/>
<path style="fill:#075fff; stroke:none;" d="M411 311L412 312L411 311z"/>
<path style="fill:#048dff; stroke:none;" d="M169 312L169 313L175 313L169 312M282.333 312.667L282.667 313.333L282.333 312.667z"/>
<path style="fill:#075fff; stroke:none;" d="M412 312L413 313L412 312z"/>
<path style="fill:#048dff; stroke:none;" d="M5 313L6 314L5 313M339 313L339 316L340 316L339 313M3 314L2 318L3 318L3 314M280 314L281 315L280 314M337 314L337 318L338 318L337 314M281.333 315.667L281.667 316.333L281.333 315.667M415 315L417 323L418 323L415 315M87 316L88 317L87 316M220 316L218 320L219 320L220 316M340.333 316.667L340.667 317.333L340.333 316.667z"/>
<path style="fill:#075fff; stroke:none;" d="M413 316L414 317L413 316z"/>
<path style="fill:#048dff; stroke:none;" d="M89 317C92.5573 329.325 103.31 340.955 115 346L115 345C102.763 337.476 97.7319 327.528 89 317M221 317L222 318L221 317z"/>
<path style="fill:#075fff; stroke:none;" d="M414.333 317.667L414.667 318.333L414.333 317.667z"/>
<path style="fill:#048dff; stroke:none;" d="M278.333 318.667L278.667 319.333L278.333 318.667M280 318L281 319L280 318M338 318L339 324L340 324L340 318L338 318M1 319L1 322L2 322L1 319M336 319L336 322L337 322L336 319M279 320L278 323L279 320z"/>
<path style="fill:#075fff; stroke:none;" d="M415 320L416 321L415 320z"/>
<path style="fill:#048dff; stroke:none;" d="M217 321L216 323L217 321M277 321L278 322L277 321M2 322L3 323L2 322M0.333333 323.667L0.666667 324.333L0.333333 323.667M276 323L277 324L276 323M335 323L335 326L336 326L335 323M215 324L200 340C205.581 336.774 213.79 330.669 215 324M275 324L276 325L275 324M277 324L278 325L277 324M418 324L418 327L419 327L418 324z"/>
<path style="fill:#075fff; stroke:none;" d="M416 325L417 326L416 325z"/>
<path style="fill:#048dff; stroke:none;" d="M1 326L2 327L1 326M92 326L93 327L92 326M215 326L216 327L215 326M276 326L266 340C270.177 336.924 275.817 331.456 276 326z"/>
<path style="fill:#075fff; stroke:none;" d="M337 326L336 331L337 331L337 326z"/>
<path style="fill:#048dff; stroke:none;" d="M0 327L1 328L0 327M334 327L334 330L335 330L334 327z"/>
<path style="fill:#47714d; stroke:none;" d="M0 328L0 331L1 331L0 328z"/>
<path style="fill:#048dff; stroke:none;" d="M273 328L274 329L273 328z"/>
<path style="fill:#075fff; stroke:none;" d="M338.333 328.667L338.667 329.333L338.333 328.667M417 328L418 329L417 328z"/>
<path style="fill:#048dff; stroke:none;" d="M419 328L419 332L420 332L419 328M94 329L95 330L94 329M272 329L273 330L272 329M271.333 330.667L271.667 331.333L271.333 330.667M0 331L1 332L0 331M333.333 331.667L333.667 332.333L333.333 331.667z"/>
<path style="fill:#075fff; stroke:none;" d="M335.333 331.667L335.667 332.333L335.333 331.667z"/>
<path style="fill:#048dff; stroke:none;" d="M270 332L271 333L270 332z"/>
<path style="fill:#075fff; stroke:none;" d="M337 332L338 333L337 332z"/>
<path style="fill:#048dff; stroke:none;" d="M98 334L99 335L98 334M332.333 334.667L332.667 335.333L332.333 334.667M268 335L269 336L268 335M266 337L267 338L266 337M331 337L328 346L329 346L331 337z"/>
<path style="fill:#075fff; stroke:none;" d="M333 337L332 341L333 341L333 337z"/>
<path style="fill:#048dff; stroke:none;" d="M103 339L104 340L103 339M202 339L203 340L202 339M198 340L197 342L198 340M262.333 341.667L262.667 342.333L262.333 341.667M265 341L240 365C247.485 360.318 262.863 349.817 265 341M195 342L187 346L187 347L196 343L195 342z"/>
<path style="fill:#075fff; stroke:none;" d="M331 342L332 343L331 342z"/>
<path style="fill:#048dff; stroke:none;" d="M261 343L262 344L261 343M259 344L255 349L259 344z"/>
<path style="fill:#075fff; stroke:none;" d="M330 344L330 347L331 347L332 344L330 344z"/>
<path style="fill:#048dff; stroke:none;" d="M193 345L194 346L193 345M113 346L114 347L113 346M116 346L116 347L126 350L126 349L116 346M191 346L192 347L191 346M115 347L116 348L115 347M184.667 347.333L185.333 347.667L184.667 347.333M327 347L321 360L322 360L327 347M117 348L118 349L117 348M181.667 348.333L182.333 348.667L181.667 348.333M186.667 348.333L187.333 348.667L186.667 348.333M178.667 349.333L179.333 349.667L178.667 349.333M184 349L185 350L184 349M253 349L254 350L253 349M127 350L127 351L130 351L127 350M173 350L173 351L177 351L173 350M251 352L254 352L253 350L251 352M254 350L255 351L254 350z"/>
<path style="fill:#075fff; stroke:none;" d="M328 350L329 351L328 350z"/>
<path style="fill:#048dff; stroke:none;" d="M131 351L131 352L136 352L131 351M167 351L167 352L172 352L167 351M177 351L178 352L177 351M130 352L131 353L130 352M139 352L139 353L165 353L139 352M250 352L249 354L250 352z"/>
<path style="fill:#075fff; stroke:none;" d="M327 352L328 353L327 352z"/>
<path style="fill:#048dff; stroke:none;" d="M136.667 353.333L137.333 353.667L136.667 353.333M166.667 353.333L167.333 353.667L166.667 353.333z"/>
<path style="fill:#075fff; stroke:none;" d="M326 353L327 354L326 353z"/>
<path style="fill:#048dff; stroke:none;" d="M248 355L249 356L248 355M0 356L1 357L0 356M247 356L248 357L247 356z"/>
<path style="fill:#075fff; stroke:none;" d="M325 356L326 357L325 356z"/>
<path style="fill:#048dff; stroke:none;" d="M419 356L419 360L420 360L419 356z"/>
<path style="fill:#47714d; stroke:none;" d="M0 357L0 424L66 424L66 423C42.427 419.823 20.4771 402.599 9.30864 382C4.96435 373.987 3.84581 364.987 0 357z"/>
<path style="fill:#048dff; stroke:none;" d="M244 357L242 360L246 358L244 357z"/>
<path style="fill:#075fff; stroke:none;" d="M417 359L418 360L417 359z"/>
<path style="fill:#048dff; stroke:none;" d="M1 361L2 362L1 361M238 363L241 361L238 363M320 361L318 365L319 365L320 361M418 361L418 364L419 364L418 361z"/>
<path style="fill:#075fff; stroke:none;" d="M321.333 362.667L321.667 363.333L321.333 362.667z"/>
<path style="fill:#048dff; stroke:none;" d="M0 363L0 366L1 366L0 363M237 363L238 364L237 363M235 364L236 365L235 364M234.333 365.667L234.667 366.333L234.333 365.667M238 365L236 368L238 365z"/>
<path style="fill:#075fff; stroke:none;" d="M320 365L321 366L320 365z"/>
<path style="fill:#048dff; stroke:none;" d="M417 365L415 373L416 373L417 365M1 366L1 369L2 369L1 366M317 366L285 402.91L265 420C280.882 410.951 295.667 396.202 306.996 382C310.431 377.694 316.809 371.689 317 366z"/>
<path style="fill:#075fff; stroke:none;" d="M319 366L320 367L319 366z"/>
<path style="fill:#048dff; stroke:none;" d="M231 367L230 369L232 369L231 367z"/>
<path style="fill:#075fff; stroke:none;" d="M318 367L319 368L318 367M415 367L416 368L415 367z"/>
<path style="fill:#048dff; stroke:none;" d="M234 368L232 371L234 368M228 369L229 370L228 369M2 370L3 374L4 374L2 370M224 373L225 374L229 371L224 373M229 370L230 371L229 370z"/>
<path style="fill:#075fff; stroke:none;" d="M414 370L415 371L414 370z"/>
<path style="fill:#048dff; stroke:none;" d="M230 371L217 380L217 381L230 371M222 376L224 373L222 376M5 374L6 375L5 374M414 374L390 408C398.089 402.302 415.862 385.178 414 374M4 375L11 389L12 389L4 375M218 378L221 375L218 378M216 377L215 379L216 377M7 378L8 379L7 378M217 378L218 379L217 378M213 379L210 383L213 379M216 379L217 380L216 379M215 381L209 385L209 386L216 382L215 381M208 382L205 386L208 382M10 384L11 385L10 384z"/>
<path style="fill:#03b9ff; stroke:none;" d="M406 384L407 385L406 384z"/>
<path style="fill:#048dff; stroke:none;" d="M201 386L201 387L205 387L201 386M207 386L202 389L202 390L208 387L207 386M199.667 387.333L200.333 387.667L199.667 387.333z"/>
<path style="fill:#03b9ff; stroke:none;" d="M404 387L405 388L404 387z"/>
<path style="fill:#048dff; stroke:none;" d="M197 388L200 390L197 388M201 388L202 389L201 388M13 389L14 390L13 389M196 389L197 390L196 389z"/>
<path style="fill:#03b9ff; stroke:none;" d="M403 389L402 391L403 389z"/>
<path style="fill:#048dff; stroke:none;" d="M12 390C17.0555 398.748 25.2524 406.945 34 412L12 390M190 392L190 393L196 390L190 392M200 390L191 395L191 396L201 391L200 390M188 393L190 395L190 393L188 393z"/>
<path style="fill:#03b9ff; stroke:none;" d="M400 393L397 397L400 393z"/>
<path style="fill:#048dff; stroke:none;" d="M184 395L184 396L188 394L184 395M188 395L189 396L188 395M182.667 396.333L183.333 396.667L182.667 396.333M189 396L190 397L189 396M176 399L176 400L179 401L182 397L176 399M187 397L179 401L179 402L188 398L187 397M182 398L183 399L182 398z"/>
<path style="fill:#075fff; stroke:none;" d="M179 399L180 400L179 399z"/>
<path style="fill:#048dff; stroke:none;" d="M174.667 400.333L175.333 400.667L174.667 400.333M172 401L175 403L172 401M176 401L177 402L176 401M167 403L167 404L172 402L167 403M177 402L178 403L177 402z"/>
<path style="fill:#03b9ff; stroke:none;" d="M391.667 402.333L392.333 402.667L391.667 402.333z"/>
<path style="fill:#048dff; stroke:none;" d="M175 403L176 404L175 403z"/>
<path style="fill:#03b9ff; stroke:none;" d="M390 403L389 405L390 403z"/>
<path style="fill:#075fff; stroke:none;" d="M392 403L393 404L392 403z"/>
<path style="fill:#048dff; stroke:none;" d="M165 404L167 406L167 404L165 404M173 404L174 405L173 404z"/>
<path style="fill:#075fff; stroke:none;" d="M391 404L392 405L391 404z"/>
<path style="fill:#048dff; stroke:none;" d="M163.667 405.333L164.333 405.667L163.667 405.333M171 405L172 406L171 405z"/>
<path style="fill:#03b9ff; stroke:none;" d="M388 405L387 407L389 407L388 405z"/>
<path style="fill:#048dff; stroke:none;" d="M161 406L164 408L161 406M164 408L164 409L170 407L164 408M158 407L158 408L161 409L158 407z"/>
<path style="fill:#03b9ff; stroke:none;" d="M385 407L386 408L385 407z"/>
<path style="fill:#048dff; stroke:none;" d="M32 408L33 409L32 408M154 409L154 410L158 408L154 409z"/>
<path style="fill:#03b9ff; stroke:none;" d="M384.333 408.667L384.667 409.333L384.333 408.667z"/>
<path style="fill:#048dff; stroke:none;" d="M388 408L386 411L388 408M162 409L163 410L162 409z"/>
<path style="fill:#03b9ff; stroke:none;" d="M382 409L383 410L382 409z"/>
<path style="fill:#048dff; stroke:none;" d="M151 410L151 411L154 412L151 410M155 412L155 413L161 411L155 412z"/>
<path style="fill:#075fff; stroke:none;" d="M279 410L280 411L279 410z"/>
<path style="fill:#03b9ff; stroke:none;" d="M381.333 410.667L381.667 411.333L381.333 410.667z"/>
<path style="fill:#048dff; stroke:none;" d="M149.667 411.333L150.333 411.667L149.667 411.333z"/>
<path style="fill:#03b9ff; stroke:none;" d="M379 411L369 416L369 417L380 412L379 411z"/>
<path style="fill:#048dff; stroke:none;" d="M384 411L383 413L384 411M35 412L35 413L49 420L49 419L35 412M146 412L146 413L149 414L146 412z"/>
<path style="fill:#075fff; stroke:none;" d="M380 412L381 413L380 412z"/>
<path style="fill:#048dff; stroke:none;" d="M39 413L40 414L39 413M144.667 413.333L145.333 413.667L144.667 413.333M150 414L150 415L154 414L150 414M381 413L378 415L378 416L382 414L381 413M138 416L144 414L138 416M145 416L145 417L149 416L145 416M136.667 416.333L137.333 416.667L136.667 416.333M376 416L377 417L376 416M133.667 417.333L134.333 417.667L133.667 417.333M142.667 417.333L143.333 417.667L142.667 417.333z"/>
<path style="fill:#075fff; stroke:none;" d="M270 417L271 418L270 417z"/>
<path style="fill:#03b9ff; stroke:none;" d="M360 419L360 420L368 418L360 419z"/>
<path style="fill:#048dff; stroke:none;" d="M374 417L372 418L372 419L374 417M49 418L49 419L52 419L49 418M124 420L124 421L128 422L131 421L131 419L134 420L124 420M137 419L137 420L141 419L137 419z"/>
<path style="fill:#075fff; stroke:none;" d="M131 419L132 420L131 419z"/>
<path style="fill:#048dff; stroke:none;" d="M367 420L367 421L371 420L367 420M50 420L50 421L54 422L54 421L50 420M55 420L56 421L55 420z"/>
<path style="fill:#075fff; stroke:none;" d="M128.667 420.333L129.333 420.667L128.667 420.333z"/>
<path style="fill:#048dff; stroke:none;" d="M134.667 420.333L135.333 420.667L134.667 420.333M263 420L262 422L263 420z"/>
<path style="fill:#03b9ff; stroke:none;" d="M357 420L359 422L359 420L357 420z"/>
<path style="fill:#048dff; stroke:none;" d="M59.6667 421.333L60.3333 421.667L59.6667 421.333M118 424L124 422L118 424M131.667 421.333L132.333 421.667L131.667 421.333z"/>
<path style="fill:#03b9ff; stroke:none;" d="M352 421L352 422L355 422L352 421z"/>
<path style="fill:#048dff; stroke:none;" d="M361 422L361 423L366 422L361 422M55.6667 422.333L56.3333 422.667L55.6667 422.333M124 422L124 423L127 424L127 423L127 422L124 422z"/>
<path style="fill:#47714d; stroke:none;" d="M125 422L126 423L125 422z"/>
<path style="fill:#048dff; stroke:none;" d="M128.667 422.333L129.333 422.667L128.667 422.333z"/>
<path style="fill:#03b9ff; stroke:none;" d="M344 422L344 423L349 423L344 422z"/>
<path style="fill:#048dff; stroke:none;" d="M58 423L58 424L61 424L58 423M66.6667 423.333L67.3333 423.667L66.6667 423.333M71 423L72 424L71 423M73 423L74 424L73 423z"/>
<path style="fill:#47714d; stroke:none;" d="M122 423L122 424L125 424L122 423z"/>
<path style="fill:#03b9ff; stroke:none;" d="M340 423L341 424L340 423z"/>
<path style="fill:#048dff; stroke:none;" d="M357 423L357 424L360 424L357 423z"/>
</svg>
